PathFileType	4	(X/Y/Z)	C:\Users\adpatrick\OneDrive - nih.no\Desktop\WebApp1080sync\WebAppv0.1\fp22_m505_left 2_Sports2D\fp22_m505_left 2_Sports2D_px_person00.trc
DataRate	CameraRate	NumFrames	NumMarkers	Units	OrigDataRate	OrigDataStartFrame	OrigNumFrames
60	60	8	22	m	60	108	869
Frame#	Time	Hip			RHip			RKnee			RAnkle			RBigToe			RSmallToe			RHeel			LHip			LKnee			LAnkle			LBigToe			LSmallToe			LHeel			Neck			Head			Nose			RShoulder			RElbow			RWrist			LShoulder			LElbow			LWrist		
		X1	Y1	Z1	X2	Y2	Z2	X3	Y3	Z3	X4	Y4	Z4	X5	Y5	Z5	X6	Y6	Z6	X7	Y7	Z7	X8	Y8	Z8	X9	Y9	Z9	X10	Y10	Z10	X11	Y11	Z11	X12	Y12	Z12	X13	Y13	Z13	X14	Y14	Z14	X15	Y15	Z15	X16	Y16	Z16	X17	Y17	Z17	X18	Y18	Z18	X19	Y19	Z19	X20	Y20	Z20	X21	Y21	Z21	X22	Y22	Z22
108	1.8	164.58621692601673	547.1236326531921	0.0	134.43998843402215	547.0983334171183	0.0	117.01345923474149	658.0823595154335	0.0	87.8598889898905	767.8981518718888	0.0	115.87174304033452	793.6757246240894	0.0	95.89064609191415	796.9622355696368	0.0	76.61475794514487	783.4728415419555	0.0	187.97746596830885	546.2773539689849	0.0	226.64128644367673	645.0766339043846	0.0	231.91640345212744	758.4334604020015	0.0	270.7599482600635	784.5559392980076	0.0	273.2813129176207	777.2016503308776	0.0	222.76397904079198	775.2704106168675	0.0	188.66278204770754	394.94857882038303	0.0	218.51322693579917	326.45598349647577	0.0	227.95540111048007	370.42670089275543	0.0	135.2655111724678	416.32164085847575	0.0	116.35927964822329	500.34921212697986	0.0	139.93684135196386	566.4570487201374	0.0	223.43083921789474	423.79911899260077	0.0	231.25247694522773	497.2796748204878	0.0	253.1884943480907	557.683846634541	0.0
109	1.8166666666666667	164.63414952665624	547.1674574674921	0.0	134.5793420369491	547.3774759531767	0.0	117.00733225999616	658.3865403603044	0.0	88.02560067578317	767.7981922334208	0.0	116.00525129078375	793.6816324191751	0.0	96.00042049975012	796.9214795965368	0.0	76.61668541834837	783.514638409792	0.0	188.09876168249178	546.3294546764278	0.0	226.7030438520384	645.1961013431969	0.0	231.9509895379069	758.430293035362	0.0	271.14899462771217	784.669651422473	0.0	273.38432459992157	777.2176968601727	0.0	222.60801254035917	775.2101039931956	0.0	188.36840412389762	394.89272640244667	0.0	218.12866751485254	326.3433061802817	0.0	227.60096641771338	370.48571759666373	0.0	134.99271767486894	416.30129743284647	0.0	116.24675483732898	500.4083900426234	0.0	139.60192324067916	566.4667877173626	0.0	223.28997119367403	423.673523981869	0.0	230.9898983988989	497.1592032467583	0.0	252.9106097184532	557.5417759348335	0.0
110	1.8333333333333333	164.7296323702309	547.2685846123993	0.0	134.78856155395115	547.6122926353316	0.0	117.01042420832044	658.5814956533342	0.0	88.22624327739959	767.6945113869035	0.0	116.1590596449396	793.6563886773272	0.0	96.12176706998811	796.901922261656	0.0	76.64866257462855	783.5738213566425	0.0	188.1962759977871	546.3733873316015	0.0	226.7848822399404	645.3497535713458	0.0	231.98194042532006	758.359127089768	0.0	271.400242150838	784.7042089787739	0.0	273.45124308001664	777.2194579383864	0.0	222.45554628898333	775.1097755613123	0.0	188.10505996512035	394.8152871786093	0.0	217.80336425140095	326.34261107138104	0.0	227.32227096548277	370.6300488662653	0.0	134.74367583245026	416.26490894506236	0.0	116.09040797012246	500.44938343471307	0.0	139.24777210089542	566.490760370621	0.0	223.13805142100674	423.500807581113	0.0	230.68746166839736	497.1470149370982	0.0	252.66780793054565	557.4821631819041	0.0
111	1.8499999999999999	164.85171920894507	547.4859662575285	0.0	135.03108846279468	547.8931061147277	0.0	117.00296572694441	658.6475506740506	0.0	88.39651354778248	767.6050555912941	0.0	116.2756121142066	793.6162663030074	0.0	96.21856336833014	796.9036417688526	0.0	76.67789728937315	783.633723278935	0.0	188.2819630026731	546.5230485285643	0.0	226.86646307582012	645.5244400082149	0.0	232.00137805439186	758.2273073725203	0.0	271.5117222990192	784.6526719571771	0.0	273.48815125710286	777.2280383163986	0.0	222.34358122071893	775.0072401350849	0.0	187.90454717272178	394.74613805389606	0.0	217.54644212400584	326.38831351040005	0.0	227.14428528631026	370.7281759746893	0.0	134.5252953894223	416.23781408248067	0.0	115.8970059970141	500.44271423040226	0.0	138.91371897473937	566.5367193446558	0.0	222.95129906192432	423.328800550443	0.0	230.37310780835438	497.22751744670245	0.0	252.44126914732078	557.5135453844264	0.0
112	1.8666666666666667	164.95371319070642	547.7709533449556	0.0	135.2331615785459	548.1791842692091	0.0	117.00538483485494	658.6230214935538	0.0	88.48724915896403	767.5539884244419	0.0	116.34797240832687	793.5552671831102	0.0	96.29999586117165	796.8974669016753	0.0	76.68974570219572	783.69540992498	0.0	188.34482292105403	546.7370789158002	0.0	226.92121001745252	645.6998092170651	0.0	232.0111652334595	758.0583214723101	0.0	271.49948984888107	784.5236767769513	0.0	273.4789269451792	777.2334263024032	0.0	222.2889889969594	774.9025491977915	0.0	187.76952990992763	394.70389060253234	0.0	217.32621976525942	326.4424516814625	0.0	227.04483459448215	370.73887586290397	0.0	134.33240841284038	416.24182173272135	0.0	115.67164473546666	500.37528731160535	0.0	138.6070267959936	566.6309210754262	0.0	222.74548487517185	423.20528267217304	0.0	230.1080803007794	497.37115642595614	0.0	252.20386624993372	557.6017537309267	0.0
113	1.8833333333333333	164.9843426960435	548.0380952847705	0.0	135.33595989390074	548.3894189165361	0.0	117.02480305633053	658.5420984425589	0.0	88.48412679177063	767.5612406990999	0.0	116.37828318814438	793.4581987732379	0.0	96.38292968344427	796.8640385937388	0.0	76.682246231098	783.7732375429715	0.0	188.35728142991135	546.9175742695572	0.0	226.92122203847384	645.8365805130659	0.0	232.0205235863543	757.8899183888642	0.0	271.39000032131065	784.3242632403629	0.0	273.4256670099999	777.2006732000073	0.0	222.27707458756439	774.7832574302598	0.0	187.68213893110254	394.68076706021327	0.0	217.1057391522012	326.4852627019663	0.0	226.97415166411432	370.70462126142723	0.0	134.14861637551274	416.27040818689767	0.0	115.41500154028739	500.24971043664846	0.0	138.30736030223284	566.7680509010306	0.0	222.56242947975304	423.1605015961911	0.0	229.94353719473278	497.5517275983087	0.0	251.94591630308926	557.7237754026509	0.0
114	1.9	164.9042804108573	548.2583878829672	0.0	135.32907830276665	548.5263649081484	0.0	117.00937291556785	658.4046888480237	0.0	88.39804037294489	767.6085759452485	0.0	116.35189073582534	793.3478909064524	0.0	96.46485156696146	796.815703507715	0.0	76.63893496180522	783.8715420076683	0.0	188.31001880748394	547.0484349546656	0.0	226.87025177798253	645.8975724140582	0.0	232.02004749804937	757.7441482680061	0.0	271.2400033992437	784.0864920635858	0.0	273.3861607646951	777.1246020725017	0.0	222.28167491527165	774.6806968660829	0.0	187.62566830089662	394.65750708068975	0.0	216.9097862111394	326.4730837854018	0.0	226.8698354269408	370.67574174074053	0.0	133.9512333532993	416.29351641682	0.0	115.13409393382457	500.0937511077884	0.0	137.99177971773625	566.9030415280776	0.0	222.4327276042466	423.2147988781506	0.0	229.8763751623511	497.76887101422477	0.0	251.69239159663553	557.8941960783324	0.0
115	1.9166666666666667	164.69544006199973	548.4270404391932	0.0	135.20452311164564	548.6198941794584	0.0	116.90978627663141	658.2345248093571	0.0	88.26966574981147	767.6677039756294	0.0	116.27782842215566	793.2727249028635	0.0	96.54823105380804	796.7746163942746	0.0	76.56466363740357	783.9714826904911	0.0	188.19705400679845	547.1454977079932	0.0	226.80096150178068	645.882988541677	0.0	231.97970733547746	757.6328254646793	0.0	271.0980694387262	783.8853275402258	0.0	273.4102227514026	777.0353454495103	0.0	222.29728614408154	774.6395412490108	0.0	187.57186153573844	394.62450361436754	0.0	216.79332602558492	326.39337085736054	0.0	226.70382332580326	370.6571759173655	0.0	133.73221613876487	416.27670731592093	0.0	114.85230433990134	499.9626963333435	0.0	137.6615902262584	566.9956863072723	0.0	222.36985077902136	423.36089174657513	0.0	229.86087561907092	498.0296942398687	0.0	251.4562379144751	558.1099972962473	0.0
